<?xml version="1.0" standalone="no"?>
<!DOCTYPE svg PUBLIC "-//W3C//DTD SVG 20010904//EN"
 "http://www.w3.org/TR/2001/REC-SVG-20010904/DTD/svg10.dtd">
<svg version="1.0" xmlns="http://www.w3.org/2000/svg"
 width="512.000000pt" height="512.000000pt" viewBox="0 0 512.000000 512.000000"
 preserveAspectRatio="xMidYMid meet">
<metadata>
Created by potrace 1.11, written by Peter Selinger 2001-2013
</metadata>
<g transform="translate(0.000000,512.000000) scale(0.100000,-0.100000)"
fill="#000000" stroke="none">
<path d="M2397 5064 c-1 -1 -40 -5 -87 -8 -440 -34 -852 -180 -1225 -434 -125
-85 -193 -142 -331 -274 l-90 -88 -138 0 c-141 0 -165 -5 -198 -43 -22 -24
-20 -7 -23 -257 l-1 -205 -46 -90 c-25 -49 -60 -128 -78 -175 -18 -47 -37 -94
-42 -105 -5 -11 -16 -45 -24 -75 -40 -144 -54 -197 -59 -225 -3 -16 -8 -43
-12 -60 -3 -16 -7 -39 -9 -50 -1 -11 -5 -38 -9 -60 -32 -221 -28 -554 11 -775
10 -62 16 -87 24 -120 5 -19 11 -46 14 -60 21 -111 111 -353 184 -495 l46 -90
1 -350 c2 -304 4 -357 19 -403 26 -77 82 -143 152 -178 l59 -29 349 -3 350 -3
55 -33 c116 -67 374 -181 471 -206 19 -5 78 -21 130 -35 84 -22 189 -43 300
-59 56 -8 229 -19 300 -19 564 0 1102 181 1543 520 112 86 295 262 384 368
276 331 478 754 547 1150 3 17 8 41 10 55 14 73 32 270 35 391 1 31 6 39 31
49 18 7 41 30 55 55 l25 42 0 960 0 960 -22 33 c-13 18 -36 43 -51 54 -28 21
-36 21 -646 23 l-618 1 -159 79 c-234 116 -407 174 -674 228 -18 3 -118 18
-145 21 -97 10 -402 24 -408 18z"/>
</g>
</svg>
